**ABCDEFGHIJKLMNOPQRSTUVWXYZabcdefghijklmnopqrstuvwxyz**************************
**PARASOLID !"#$%&'()*+,-./:;<=>?@[\]^_`{|}~0123456789**************************
**PART1;
MC=unknown;
MC_MODEL=unknown;
MC_ID=unknown;
OS=unknown;
OS_RELEASE=unknown;
FRU=COMSOL;
APPL=COMSOL Multiphysics;
SITE=unknown;
USER=unknown;
FORMAT=text;
GUISE=transmit;
KEY=unicode filename;
FILE=unicode filename;
DATE=unknown;
**PART2;
SCH=SCH_3100189_31001;
USFLD_SIZE=0;
**PART3;
**END_OF_HEADER*****************************************************************
T51 : TRANSMIT FILE created by modeller version 310018923 SCH_3100189_31001_1300
6215 0 176 6 14 PART_XMT_BLOCK9 Part list9 n_entries0 0 1 d16 index_map_offset0
 0 1 d9 index_map82 0 20 schema_embedding_map82 0 16 mesh_offset_data206 0 7 ent
ries1005 1 T7 1 7 0 0 0 0 2 3 4 5 6 7 8 12 34 CCCCCCI4 mesh1006 0 I8 polyline100
8 0 CCCCCCCDI5 owner1040 0 CCCCCCI13 boundary_mesh1006 0 I17 boundary_polyline10
08 0 CCCA16 index_map_offset0 0 1 dA9 index_map82 0 A17 node_id_index_map82 0 A2
0 schema_embedding_map82 0 A5 child12 0 A14 lowest_node_id0 0 1 dA16 mesh_offset
_data206 0 Z2 90 0 9 0 0 0 0 0 0 1e3 1e-8 0 0 3 1 0 1 1 10 11 12 13 0 0 14 15 16
 0 0 0 0 0 0 0 12 3 90 0 17 0 0 0 0 0 0 1e3 1e-8 0 2 4 1 0 1 1 18 19 20 21 0 0 2
2 23 24 0 0 0 0 0 0 0 12 4 90 0 25 0 0 0 0 0 0 1e3 1e-8 0 3 5 1 0 1 1 26 27 28 2
9 0 0 30 31 32 0 0 0 0 0 0 0 12 5 90 0 33 0 0 0 0 0 0 1e3 1e-8 0 4 6 1 0 1 1 34
 35 36 37 0 0 38 39 40 0 0 0 0 0 0 0 12 6 90 0 41 0 0 0 0 0 0 1e3 1e-8 0 5 7 1 0
 1 1 42 43 44 45 0 0 46 47 48 0 0 0 0 0 0 0 12 7 90 0 49 0 0 0 0 0 0 1e3 1e-8 0
 6 8 1 0 1 1 50 51 52 53 0 0 54 55 56 0 0 0 0 0 0 0 12 8 90 0 57 0 0 0 0 0 0 1e3
 1e-8 0 7 0 1 0 1 1 58 59 60 61 0 0 62 63 64 0 0 0 0 0 0 0 70 11 CI9 list_type0
 0 1 uI10 notransmit0 0 1 lCCCDCCDI12 finger_index0 0 1 dI12 finger_block1012 0
 CZ57 0 4 T8 0 0 1 20 1 65 65 13 255 58 36 0 8 0 66 0 0 67 0 124 255 59 42 0 66
 68 0 0 +69 70 134 255 60 54 0 63 71 0 0 +72 73 29 255 61 62 0 64 74 0 .00124206
 .02 .00296 19 8 CCCCCCCA5 owner12 0 Z62 1 75 8 67 0 76 V0 16 255 63 32 77 ?78 0
 79 60 0 0 8 18 255 64 28 80 78 0 81 61 ?8 81 255 1 80 63 82 64 0 0 0 83 84 17 2
55 78 0 85 86 87 64 88 63 0 89 +18 81 23 83 86 64 90 91 ?8 81 1 83 64 82 81 0 0
 80 92 93 17 86 0 85 94 78 81 95 96 0 97 -18 90 18 92 98 81 99 74 ?8 29 91 60 0
 81 100 74 .00124206 0 .00296 29 100 59 0 99 101 91 45466e-8 0 .00296 29 74 61 0
 90 91 61 45466e-8 .02 .00296 18 99 16 102 103 90 104 100 ?8 29 101 58 0 104 105
 100 .00124206 .02 .00196 18 104 11 106 88 99 107 101 ?8 29 105 57 0 107 108 101
 45466e-8 .02 .00196 18 107 9 109 110 104 111 105 ?8 29 108 56 0 111 112 105 .00
124206 0 .00196 18 111 7 113 94 107 114 108 ?8 29 112 55 0 114 0 108 45466e-8 0
 .00196 18 114 6 115 116 111 0 112 ?8 81 1 115 70 82 114 0 0 113 77 117 17 116 0
 118 119 103 114 120 121 0 122 -15 255 118 21 0 119 123 0 17 119 0 118 124 116 1
11 125 126 0 0 +17 103 0 118 116 124 99 97 127 0 128 -17 120 0 129 130 122 99 11
6 121 0 0 +16 121 15 131 ?120 132 133 134 0 0 8 17 122 0 129 120 110 114 135 136
 0 125 +15 129 14 0 122 137 0 17 110 0 129 122 130 107 138 139 0 140 -17 135 0 1
41 142 125 107 122 136 0 0 -16 136 8 143 ?122 144 126 145 0 0 8 17 125 0 141 135
 146 114 119 126 0 0 -15 141 4 0 125 147 0 17 146 0 141 125 142 111 87 133 0 119
 -16 126 5 148 ?119 136 0 149 0 0 8 81 1 148 82 82 126 0 0 143 150 151 134 149 4
3 0 126 0 152 0 +153 154 134 152 44 0 133 149 155 0 +156 157 136 255 153 1 2 4 2
 1 FFT1 158 159 160 135 255 154 1 0 45 255 8 158 45466e-8 0 .00196 1 .00124206 0
 .00196 1 127 255 2 159 2 2 128 255 2 160 0 1 16 133 12 161 ?87 121 144 152 0 0
 8 134 155 45 0 144 152 145 0 +162 163 136 156 1 2 4 2 1 FFT1 164 165 166 135 15
7 1 0 45 8 164 .00124206 0 .00196 1 .00124206 .02 .00196 1 127 2 165 2 2 128 2 1
66 0 1 16 144 10 167 ?140 133 136 155 0 0 8 134 145 46 0 136 155 168 0 +169 170
 136 162 1 2 4 2 1 FFT1 171 172 173 135 163 1 0 45 8 171 .00124206 .02 .00196 1
 45466e-8 .02 .00196 1 127 2 172 2 2 128 2 173 0 1 134 168 47 0 127 145 174 0 +1
75 176 136 169 1 2 4 2 1 FFT1 177 178 179 135 170 1 0 45 8 177 45466e-8 .02 .001
96 1 45466e-8 0 .00196 1 127 2 178 2 2 128 2 179 0 1 16 127 24 180 ?97 96 181 16
8 0 0 8 134 174 48 0 96 168 182 0 +183 184 136 175 1 2 4 2 1 FFT1 185 186 187 13
5 176 1 0 45 8 185 45466e-8 0 .00296 1 .00124206 0 .00296 1 127 2 186 2 2 128 2
 187 0 1 16 96 27 188 ?95 79 127 174 0 0 8 134 182 49 0 79 174 189 0 +190 191 13
6 183 1 2 4 2 1 FFT1 192 193 194 135 184 1 0 45 8 192 .00124206 0 .00296 1 .0012
4206 .02 .00296 1 127 2 193 2 2 128 2 194 0 1 16 79 29 195 ?98 63 96 182 0 0 8 1
34 189 50 0 132 182 134 0 +196 197 136 190 1 2 4 2 1 FFT1 198 199 200 135 191 1
 0 45 8 198 .00124206 .02 .00296 1 45466e-8 .02 .00296 1 127 2 199 2 2 128 2 200
 0 1 16 132 17 201 ?128 139 121 189 0 0 8 134 134 51 0 121 189 202 0 +203 204 13
6 196 1 2 4 2 1 FFT1 205 206 207 135 197 1 0 45 8 205 45466e-8 .02 .00296 1 4546
6e-8 0 .00296 1 127 2 206 2 2 128 2 207 0 1 134 202 52 0 181 134 71 0 +208 209 1
36 203 1 2 4 2 1 FFT1 210 211 212 135 204 1 0 45 8 210 45466e-8 0 .00196 1 45466
e-8 0 .00296 1 127 2 211 2 2 128 2 212 0 1 16 181 22 213 ?124 127 139 202 0 0 8
 134 71 53 0 139 202 60 0 +214 215 136 208 1 2 4 2 1 FFT1 216 217 218 135 209 1
 0 45 8 216 .00124206 0 .00196 1 .00124206 0 .00296 1 127 2 217 2 2 128 2 218 0
 1 16 139 19 219 ?138 181 132 71 0 0 8 136 214 1 2 4 2 1 FFT1 220 221 222 135 21
5 1 0 45 8 220 45466e-8 .02 .00196 1 45466e-8 .02 .00296 1 127 2 221 2 2 128 2 2
22 0 1 81 1 219 76 82 139 0 0 213 201 223 17 138 0 224 89 140 90 110 139 0 130 +
15 224 34 0 140 66 0 17 89 0 224 88 138 64 98 79 0 95 -17 140 0 224 138 88 107 1
42 144 0 135 +17 130 0 129 110 120 90 128 132 0 0 -17 128 0 225 97 98 99 130 132
 0 120 +15 225 26 0 97 226 0 17 97 0 225 95 128 81 103 127 0 124 +17 98 0 225 12
8 95 90 89 79 0 138 +17 95 0 225 98 97 64 86 96 0 0 +17 124 0 118 103 119 81 94
 181 0 0 +17 94 0 85 87 86 111 124 181 0 146 -15 85 31 0 87 227 0 17 87 0 85 78
 94 104 146 133 0 142 +17 142 0 141 146 135 104 140 144 0 0 -14 255 227 30 228 ?
226 66 85 58 68 +0 0 226 66 76 81 1 228 84 82 227 0 0 150 229 230 14 226 25 229
 ?123 227 225 58 231 +0 0 123 227 76 14 66 33 150 ?227 0 224 58 59 +0 0 227 0 76
 124 68 41 0 227 231 59 0 +232 233 13 76 2 0 0 0 0 0 0 62 66 124 231 40 0 226 23
4 68 0 +235 236 126 255 232 FF1 1 2 2 1 1 2 2 TFF3 4 237 238 239 240 241 125 255
 233 0 1 0 1 0 1 0 1 2 BBBBBBBB????0 0 0 0 45 16 237 .00124206 .02 .00296 1 .001
24206 .02 96e-5 1 .00124206 -.02 .00296 1 .00124206 -.02 96e-5 1 127 2 238 2 2 1
27 2 239 2 2 128 2 240 0 1 128 2 241 0 1 124 234 39 0 123 242 231 0 +243 244 126
 235 FF1 1 2 2 1 1 2 2 TFF3 4 245 246 247 248 249 125 236 0 1 0 1 0 1 0 1 2 BBBB
BBBB????0 0 0 0 45 16 245 .00124206 .02 .00296 1 .00124206 -.02 .00296 1 -33274e
-8 .02 .00296 1 -33274e-8 -.02 .00296 1 127 2 246 2 2 127 2 247 2 2 128 2 248 0
 1 128 2 249 0 1 14 123 20 250 ?137 226 118 58 234 -0 0 137 226 76 124 242 38 0
 137 251 234 0 +252 253 126 243 FF1 1 2 2 1 1 2 2 TFF3 4 254 255 256 257 258 125
 244 0 1 0 1 0 1 0 1 2 BBBBBBBB????0 0 0 0 45 16 254 45466e-8 0 .00196 1 .002029
46 0 .00196 1 45466e-8 0 .00396 1 .00202946 0 .00396 1 127 2 255 2 2 127 2 256 2
 2 128 2 257 0 1 128 2 258 0 1 14 137 13 259 ?147 123 129 58 242 -0 0 147 123 76
 124 251 37 0 147 0 242 0 +260 261 126 252 FF1 1 2 2 1 1 2 2 TFF3 4 262 263 264
 265 266 125 253 0 1 0 1 0 1 0 1 2 BBBBBBBB????0 0 0 0 45 16 262 45466e-8 0 .001
96 1 45466e-8 0 .00396 1 45466e-8 .04 .00196 1 45466e-8 .04 .00396 1 127 2 263 2
 2 127 2 264 2 2 128 2 265 0 1 128 2 266 0 1 14 147 3 267 ?0 137 141 58 251 -0 0
 0 137 76 126 260 FF1 1 2 2 1 1 2 2 TFF3 4 268 269 270 271 272 125 261 0 1 0 1 0
 1 0 1 2 BBBBBBBB????0 0 0 0 45 16 268 45466e-8 0 .00196 1 45466e-8 .04 .00196 1
 .00202946 0 .00196 1 .00202946 .04 .00196 1 127 2 269 2 2 127 2 270 2 2 128 2 2
71 0 1 128 2 272 0 1 81 1 267 88 82 147 0 0 259 75 273 80 255 1 82 274 275 9000
 0 0 0 0 3 5 0 0 0 FFFFTFTTFFFFTF1 81 1 259 87 82 137 0 0 250 267 276 81 1 75 89
 82 62 0 0 267 277 278 82 255 1 273 0 81 1 277 90 82 67 0 0 75 0 279 82 1 278 0
 19 67 35 277 8 0 62 58 S0 82 1 279 1 81 1 250 86 82 123 0 0 229 259 280 82 1 27
6 1 81 1 229 85 82 226 0 0 228 250 281 82 1 280 2 82 1 281 3 79 255 12 275 COMSO
L_LABEL81 1 150 83 82 66 0 0 148 228 282 82 1 282 5 82 1 230 4 17 88 0 224 140 8
9 104 78 63 0 87 -81 1 213 75 82 181 0 0 180 219 283 81 1 201 77 82 132 0 0 219
 131 284 82 1 223 10 81 1 131 78 82 121 0 0 201 161 285 82 1 284 7 81 1 161 79 8
2 133 0 0 131 167 286 82 1 285 8 81 1 167 80 82 144 0 0 161 143 287 82 1 286 1 8
1 1 143 81 82 136 0 0 167 148 288 82 1 287 2 82 1 288 3 81 1 180 74 82 127 0 0 1
88 213 289 82 1 283 9 81 1 188 73 82 96 0 0 195 180 290 82 1 289 4 81 1 195 72 8
2 79 0 0 77 188 291 82 1 290 5 81 1 77 71 82 63 0 0 115 195 292 82 1 291 6 82 1
 292 11 82 1 151 0 81 1 113 69 82 111 0 0 109 115 293 82 1 117 0 81 1 109 68 82
 107 0 0 106 113 294 82 1 293 1 81 1 106 67 82 104 0 0 102 109 295 82 1 294 2 81
 1 102 66 82 99 0 0 92 106 296 82 1 295 3 81 1 92 65 82 90 0 0 83 102 297 82 1 2
96 4 82 1 297 6 82 1 93 5 82 1 84 7 136 72 1 2 4 2 1 FFT1 298 299 300 135 73 1 0
 45 8 298 .00124206 .02 .00196 1 .00124206 .02 .00296 1 127 2 299 2 2 128 2 300
 0 1 126 69 FF1 1 2 2 1 1 2 2 TFF3 4 301 302 303 304 305 125 70 0 1 0 1 0 1 0 1
 2 BBBBBBBB????0 0 0 0 45 16 301 .00124206 .02 .00296 1 -33274e-8 .02 .00296 1 .
00124206 .02 96e-5 1 -33274e-8 .02 96e-5 1 127 2 302 2 2 127 2 303 2 2 128 2 304
 0 1 128 2 305 0 1 74 4 CI16 index_map_offset0 0 1 dCCZ20 65 1 0 0 277 0 0 0 0 0
 0 0 0 0 0 0 0 0 0 0 0 0 0 0 70 49 0 4 T7 0 0 1 20 1 306 306 13 50 36 0 7 0 307
 0 0 308 0 124 51 42 0 307 309 0 0 +310 311 134 52 54 0 55 312 0 0 +313 314 29 5
3 62 0 56 315 0 .00169672 .02 .00196 19 54 1 316 7 308 0 317 V0 16 55 32 318 ?31
9 0 320 52 0 0 7 18 56 28 321 319 0 322 53 ?7 81 1 321 63 82 56 0 0 0 323 324 17
 319 0 325 326 327 56 328 55 0 329 +18 322 23 323 326 56 330 331 ?7 81 1 323 64
 82 322 0 0 321 332 333 17 326 0 325 334 319 322 335 336 0 337 -18 330 18 332 33
8 322 339 315 ?7 29 331 60 0 322 340 315 .00169672 0 .00196 29 340 59 0 339 341
 331 0 0 .00196 29 315 61 0 330 331 53 0 .02 .00196 18 339 16 342 343 330 344 34
0 ?7 29 341 58 0 344 345 340 .00169672 .02 .00158 18 344 11 346 328 339 347 341
 ?7 29 345 57 0 347 348 341 0 .02 .00158 18 347 9 349 350 344 351 345 ?7 29 348
 56 0 351 352 345 .00169672 0 .00158 18 351 7 353 334 347 354 348 ?7 29 352 55 0
 354 0 348 0 0 .00158 18 354 6 355 356 351 0 352 ?7 81 1 355 70 82 354 0 0 353 3
18 357 17 356 0 358 359 343 354 360 361 0 362 -15 358 21 0 359 363 0 17 359 0 35
8 364 356 351 365 366 0 0 +17 343 0 358 356 364 339 337 367 0 368 -17 360 0 369
 370 362 339 356 361 0 0 +16 361 15 371 ?360 372 373 374 0 0 7 17 362 0 369 360
 350 354 375 376 0 365 +15 369 14 0 362 377 0 17 350 0 369 362 370 347 378 379 0
 380 -17 375 0 381 382 365 347 362 376 0 0 -16 376 8 383 ?362 384 366 385 0 0 7
 17 365 0 381 375 386 354 359 366 0 0 -15 381 4 0 365 387 0 17 386 0 381 365 382
 351 327 373 0 359 -16 366 5 388 ?359 376 0 389 0 0 7 81 1 388 82 82 366 0 0 383
 390 391 134 389 43 0 366 0 392 0 +393 394 134 392 44 0 373 389 395 0 +396 397 1
36 393 1 2 4 2 1 FFT1 398 399 400 135 394 1 0 45 8 398 0 0 .00158 1 .00169672 0
 .00158 1 127 2 399 2 2 128 2 400 0 1 16 373 12 401 ?327 361 384 392 0 0 7 134 3
95 45 0 384 392 385 0 +402 403 136 396 1 2 4 2 1 FFT1 404 405 406 135 397 1 0 45
 8 404 .00169672 0 .00158 1 .00169672 .02 .00158 1 127 2 405 2 2 128 2 406 0 1 1
6 384 10 407 ?380 373 376 395 0 0 7 134 385 46 0 376 395 408 0 +409 410 136 402
 1 2 4 2 1 FFT1 411 412 413 135 403 1 0 45 8 411 .00169672 .02 .00158 1 0 .02 .0
0158 1 127 2 412 2 2 128 2 413 0 1 134 408 47 0 367 385 414 0 +415 416 136 409 1
 2 4 2 1 FFT1 417 418 419 135 410 1 0 45 8 417 0 .02 .00158 1 0 0 .00158 1 127 2
 418 2 2 128 2 419 0 1 16 367 24 420 ?337 336 421 408 0 0 7 134 414 48 0 336 408
 422 0 +423 424 136 415 1 2 4 2 1 FFT1 425 426 427 135 416 1 0 45 8 425 0 0 .001
96 1 .00169672 0 .00196 1 127 2 426 2 2 128 2 427 0 1 16 336 27 428 ?335 320 367
 414 0 0 7 134 422 49 0 320 414 429 0 +430 431 136 423 1 2 4 2 1 FFT1 432 433 43
4 135 424 1 0 45 8 432 .00169672 0 .00196 1 .00169672 .02 .00196 1 127 2 433 2 2
 128 2 434 0 1 16 320 29 435 ?338 55 336 422 0 0 7 134 429 50 0 372 422 374 0 +4
36 437 136 430 1 2 4 2 1 FFT1 438 439 440 135 431 1 0 45 8 438 .00169672 .02 .00
196 1 0 .02 .00196 1 127 2 439 2 2 128 2 440 0 1 16 372 17 441 ?368 379 361 429
 0 0 7 134 374 51 0 361 429 442 0 +443 444 136 436 1 2 4 2 1 FFT1 445 446 447 13
5 437 1 0 45 8 445 0 .02 .00196 1 0 0 .00196 1 127 2 446 2 2 128 2 447 0 1 134 4
42 52 0 421 374 312 0 +448 449 136 443 1 2 4 2 1 FFT1 450 451 452 135 444 1 0 45
 8 450 0 0 .00158 1 0 0 .00196 1 127 2 451 2 2 128 2 452 0 1 16 421 22 453 ?364
 367 379 442 0 0 7 134 312 53 0 379 442 52 0 +454 455 136 448 1 2 4 2 1 FFT1 456
 457 458 135 449 1 0 45 8 456 .00169672 0 .00158 1 .00169672 0 .00196 1 127 2 45
7 2 2 128 2 458 0 1 16 379 19 459 ?378 421 372 312 0 0 7 136 454 1 2 4 2 1 FFT1
 460 461 462 135 455 1 0 45 8 460 0 .02 .00158 1 0 .02 .00196 1 127 2 461 2 2 12
8 2 462 0 1 81 1 459 76 82 379 0 0 453 441 463 17 378 0 464 329 380 330 350 379
 0 370 +15 464 34 0 380 307 0 17 329 0 464 328 378 56 338 320 0 335 -17 380 0 46
4 378 328 347 382 384 0 375 +17 370 0 369 350 360 330 368 372 0 0 -17 368 0 465
 337 338 339 370 372 0 360 +15 465 26 0 337 466 0 17 337 0 465 335 368 322 343 3
67 0 364 +17 338 0 465 368 335 330 329 320 0 378 +17 335 0 465 338 337 56 326 33
6 0 0 +17 364 0 358 343 359 322 334 421 0 0 +17 334 0 325 327 326 351 364 421 0
 386 -15 325 31 0 327 467 0 17 327 0 325 319 334 344 386 373 0 382 +17 382 0 381
 386 375 344 380 384 0 0 -14 467 30 468 ?466 307 325 50 309 +0 0 466 307 317 81
 1 468 84 82 467 0 0 390 469 470 14 466 25 469 ?363 467 465 50 471 +0 0 363 467
 317 14 307 33 390 ?467 0 464 50 51 +0 0 467 0 317 124 309 41 0 467 471 51 0 +47
2 473 13 317 2 0 0 0 0 0 0 54 307 124 471 40 0 466 474 309 0 +475 476 126 472 FF
1 1 2 2 1 1 2 2 TFF3 4 477 478 479 480 481 125 473 0 1 0 1 0 1 0 1 2 BBBBBBBB???
?0 0 0 0 45 16 477 .00169672 .02 .00196 1 .00169672 .02 .0012 1 .00169672 -.02 .
00196 1 .00169672 -.02 .0012 1 127 2 478 2 2 127 2 479 2 2 128 2 480 0 1 128 2 4
81 0 1 124 474 39 0 363 482 471 0 +483 484 126 475 FF1 1 2 2 1 1 2 2 TFF3 4 485
 486 487 488 489 125 476 0 1 0 1 0 1 0 1 2 BBBBBBBB????0 0 0 0 45 16 485 .001696
72 .02 .00196 1 .00169672 -.02 .00196 1 -.00169672 .02 .00196 1 -.00169672 -.02
 .00196 1 127 2 486 2 2 127 2 487 2 2 128 2 488 0 1 128 2 489 0 1 14 363 20 490
 ?377 466 358 50 474 -0 0 377 466 317 124 482 38 0 377 491 474 0 +492 493 126 48
3 FF1 1 2 2 1 1 2 2 TFF3 4 494 495 496 497 498 125 484 0 1 0 1 0 1 0 1 2 BBBBBBB
B????0 0 0 0 45 16 494 0 0 .00158 1 .00339344 0 .00158 1 0 0 .00234 1 .00339344
 0 .00234 1 127 2 495 2 2 127 2 496 2 2 128 2 497 0 1 128 2 498 0 1 14 377 13 49
9 ?387 363 369 50 482 -0 0 387 363 317 124 491 37 0 387 0 482 0 +500 501 126 492
 FF1 1 2 2 1 1 2 2 TFF3 4 502 503 504 505 506 125 493 0 1 0 1 0 1 0 1 2 BBBBBBBB
????0 0 0 0 45 16 502 0 0 .00158 1 0 0 .00234 1 0 .04 .00158 1 0 .04 .00234 1 12
7 2 503 2 2 127 2 504 2 2 128 2 505 0 1 128 2 506 0 1 14 387 3 507 ?0 377 381 50
 491 -0 0 0 377 317 126 500 FF1 1 2 2 1 1 2 2 TFF3 4 508 509 510 511 512 125 501
 0 1 0 1 0 1 0 1 2 BBBBBBBB????0 0 0 0 45 16 508 0 0 .00158 1 0 .04 .00158 1 .00
339344 0 .00158 1 .00339344 .04 .00158 1 127 2 509 2 2 127 2 510 2 2 128 2 511 0
 1 128 2 512 0 1 81 1 507 88 82 387 0 0 499 316 513 81 1 499 87 82 377 0 0 490 5
07 514 81 1 316 89 82 54 0 0 507 515 516 82 1 513 0 81 1 515 90 82 308 0 0 316 0
 517 82 1 516 0 19 308 35 515 7 0 54 50 S0 82 1 517 1 81 1 490 86 82 363 0 0 469
 499 518 82 1 514 1 81 1 469 85 82 466 0 0 468 490 519 82 1 518 2 82 1 519 3 81
 1 390 83 82 307 0 0 388 468 520 82 1 520 5 82 1 470 4 17 328 0 464 380 329 344
 319 55 0 327 -81 1 453 75 82 421 0 0 420 459 521 81 1 441 77 82 372 0 0 459 371
 522 82 1 463 10 81 1 371 78 82 361 0 0 441 401 523 82 1 522 7 81 1 401 79 82 37
3 0 0 371 407 524 82 1 523 8 81 1 407 80 82 384 0 0 401 383 525 82 1 524 1 81 1
 383 81 82 376 0 0 407 388 526 82 1 525 2 82 1 526 3 81 1 420 74 82 367 0 0 428
 453 527 82 1 521 9 81 1 428 73 82 336 0 0 435 420 528 82 1 527 4 81 1 435 72 82
 320 0 0 318 428 529 82 1 528 5 81 1 318 71 82 55 0 0 355 435 530 82 1 529 6 82
 1 530 11 82 1 391 0 81 1 353 69 82 351 0 0 349 355 531 82 1 357 0 81 1 349 68 8
2 347 0 0 346 353 532 82 1 531 1 81 1 346 67 82 344 0 0 342 349 533 82 1 532 2 8
1 1 342 66 82 339 0 0 332 346 534 82 1 533 3 81 1 332 65 82 330 0 0 323 342 535
 82 1 534 4 82 1 535 6 82 1 333 5 82 1 324 7 136 313 1 2 4 2 1 FFT1 536 537 538
 135 314 1 0 45 8 536 .00169672 .02 .00158 1 .00169672 .02 .00196 1 127 2 537 2
 2 128 2 538 0 1 126 310 FF1 1 2 2 1 1 2 2 TFF3 4 539 540 541 542 543 125 311 0
 1 0 1 0 1 0 1 2 BBBBBBBB????0 0 0 0 45 16 539 .00169672 .02 .00196 1 -.00169672
 .02 .00196 1 .00169672 .02 .0012 1 -.00169672 .02 .0012 1 127 2 540 2 2 127 2 5
41 2 2 128 2 542 0 1 128 2 543 0 1 74 20 306 1 0 0 515 0 0 0 0 0 0 0 0 0 0 0 0 0
 0 0 0 0 0 0 70 41 0 4 T6 0 0 1 20 1 544 544 13 42 36 0 6 0 545 0 0 546 0 124 43
 42 0 545 547 0 0 +548 549 134 44 54 0 47 550 0 0 +551 552 29 45 62 0 48 553 0 .
00169672 .02 .00158 19 46 1 554 6 546 0 555 V0 16 47 32 556 ?557 0 558 44 0 0 6
 18 48 28 559 557 0 560 45 ?6 81 1 559 63 82 48 0 0 0 561 562 17 557 0 563 564 5
65 48 566 47 0 567 +18 560 23 561 564 48 568 569 ?6 81 1 561 64 82 560 0 0 559 5
70 571 17 564 0 563 572 557 560 573 574 0 575 -18 568 18 570 576 560 577 553 ?6
 29 569 60 0 560 578 553 .00169672 0 .00158 29 578 59 0 577 579 569 0 0 .00158 2
9 553 61 0 568 569 45 0 .02 .00158 18 577 16 580 581 568 582 578 ?6 29 579 58 0
 582 583 578 .00169672 .02 .00153 18 582 11 584 566 577 585 579 ?6 29 583 57 0 5
85 586 579 0 .02 .00153 18 585 9 587 588 582 589 583 ?6 29 586 56 0 589 590 583
 .00169672 0 .00153 18 589 7 591 572 585 592 586 ?6 29 590 55 0 592 0 586 0 0 .0
0153 18 592 6 593 594 589 0 590 ?6 81 1 593 70 82 592 0 0 591 556 595 17 594 0 5
96 597 581 592 598 599 0 600 -15 596 21 0 597 601 0 17 597 0 596 602 594 589 603
 604 0 0 +17 581 0 596 594 602 577 575 605 0 606 -17 598 0 607 608 600 577 594 5
99 0 0 +16 599 15 609 ?598 610 611 612 0 0 6 17 600 0 607 598 588 592 613 614 0
 603 +15 607 14 0 600 615 0 17 588 0 607 600 608 585 616 617 0 618 -17 613 0 619
 620 603 585 600 614 0 0 -16 614 8 621 ?600 622 604 623 0 0 6 17 603 0 619 613 6
24 592 597 604 0 0 -15 619 4 0 603 625 0 17 624 0 619 603 620 589 565 611 0 597
 -16 604 5 626 ?597 614 0 627 0 0 6 81 1 626 82 82 604 0 0 621 628 629 134 627 4
3 0 604 0 630 0 +631 632 134 630 44 0 611 627 633 0 +634 635 136 631 1 2 4 2 1 F
FT1 636 637 638 135 632 1 0 45 8 636 0 0 .00153 1 .00169672 0 .00153 1 127 2 637
 2 2 128 2 638 0 1 16 611 12 639 ?565 599 622 630 0 0 6 134 633 45 0 622 630 623
 0 +640 641 136 634 1 2 4 2 1 FFT1 642 643 644 135 635 1 0 45 8 642 .00169672 0
 .00153 1 .00169672 .02 .00153 1 127 2 643 2 2 128 2 644 0 1 16 622 10 645 ?618
 611 614 633 0 0 6 134 623 46 0 614 633 646 0 +647 648 136 640 1 2 4 2 1 FFT1 64
9 650 651 135 641 1 0 45 8 649 .00169672 .02 .00153 1 0 .02 .00153 1 127 2 650 2
 2 128 2 651 0 1 134 646 47 0 605 623 652 0 +653 654 136 647 1 2 4 2 1 FFT1 655
 656 657 135 648 1 0 45 8 655 0 .02 .00153 1 0 0 .00153 1 127 2 656 2 2 128 2 65
7 0 1 16 605 24 658 ?575 574 659 646 0 0 6 134 652 48 0 574 646 660 0 +661 662 1
36 653 1 2 4 2 1 FFT1 663 664 665 135 654 1 0 45 8 663 0 0 .00158 1 .00169672 0
 .00158 1 127 2 664 2 2 128 2 665 0 1 16 574 27 666 ?573 558 605 652 0 0 6 134 6
60 49 0 558 652 667 0 +668 669 136 661 1 2 4 2 1 FFT1 670 671 672 135 662 1 0 45
 8 670 .00169672 0 .00158 1 .00169672 .02 .00158 1 127 2 671 2 2 128 2 672 0 1 1
6 558 29 673 ?576 47 574 660 0 0 6 134 667 50 0 610 660 612 0 +674 675 136 668 1
 2 4 2 1 FFT1 676 677 678 135 669 1 0 45 8 676 .00169672 .02 .00158 1 0 .02 .001
58 1 127 2 677 2 2 128 2 678 0 1 16 610 17 679 ?606 617 599 667 0 0 6 134 612 51
 0 599 667 680 0 +681 682 136 674 1 2 4 2 1 FFT1 683 684 685 135 675 1 0 45 8 68
3 0 .02 .00158 1 0 0 .00158 1 127 2 684 2 2 128 2 685 0 1 134 680 52 0 659 612 5
50 0 +686 687 136 681 1 2 4 2 1 FFT1 688 689 690 135 682 1 0 45 8 688 0 0 .00153
 1 0 0 .00158 1 127 2 689 2 2 128 2 690 0 1 16 659 22 691 ?602 605 617 680 0 0 6
 134 550 53 0 617 680 44 0 +692 693 136 686 1 2 4 2 1 FFT1 694 695 696 135 687 1
 0 45 8 694 .00169672 0 .00153 1 .00169672 0 .00158 1 127 2 695 2 2 128 2 696 0
 1 16 617 19 697 ?616 659 610 550 0 0 6 136 692 1 2 4 2 1 FFT1 698 699 700 135 6
93 1 0 45 8 698 0 .02 .00153 1 0 .02 .00158 1 127 2 699 2 2 128 2 700 0 1 81 1 6
97 76 82 617 0 0 691 679 701 17 616 0 702 567 618 568 588 617 0 608 +15 702 34 0
 618 545 0 17 567 0 702 566 616 48 576 558 0 573 -17 618 0 702 616 566 585 620 6
22 0 613 +17 608 0 607 588 598 568 606 610 0 0 -17 606 0 703 575 576 577 608 610
 0 598 +15 703 26 0 575 704 0 17 575 0 703 573 606 560 581 605 0 602 +17 576 0 7
03 606 573 568 567 558 0 616 +17 573 0 703 576 575 48 564 574 0 0 +17 602 0 596
 581 597 560 572 659 0 0 +17 572 0 563 565 564 589 602 659 0 624 -15 563 31 0 56
5 705 0 17 565 0 563 557 572 582 624 611 0 620 +17 620 0 619 624 613 582 618 622
 0 0 -14 705 30 706 ?704 545 563 42 547 +0 0 704 545 555 81 1 706 84 82 705 0 0
 628 707 708 14 704 25 707 ?601 705 703 42 709 +0 0 601 705 555 14 545 33 628 ?7
05 0 702 42 43 +0 0 705 0 555 124 547 41 0 705 709 43 0 +710 711 13 555 2 0 0 0
 0 0 0 46 545 124 709 40 0 704 712 547 0 +713 714 126 710 FF1 1 2 2 1 1 2 2 TFF3
 4 715 716 717 718 719 125 711 0 1 0 1 0 1 0 1 2 BBBBBBBB????0 0 0 0 45 16 715 .
00169672 .02 .00158 1 .00169672 .02 .00148 1 .00169672 -.02 .00158 1 .00169672 -
.02 .00148 1 127 2 716 2 2 127 2 717 2 2 128 2 718 0 1 128 2 719 0 1 124 712 39
 0 601 720 709 0 +721 722 126 713 FF1 1 2 2 1 1 2 2 TFF3 4 723 724 725 726 727 1
25 714 0 1 0 1 0 1 0 1 2 BBBBBBBB????0 0 0 0 45 16 723 .00169672 .02 .00158 1 .0
0169672 -.02 .00158 1 -.00169672 .02 .00158 1 -.00169672 -.02 .00158 1 127 2 724
 2 2 127 2 725 2 2 128 2 726 0 1 128 2 727 0 1 14 601 20 728 ?615 704 596 42 712
 -0 0 615 704 555 124 720 38 0 615 729 712 0 +730 731 126 721 FF1 1 2 2 1 1 2 2
 TFF3 4 732 733 734 735 736 125 722 0 1 0 1 0 1 0 1 2 BBBBBBBB????0 0 0 0 45 16
 732 0 0 .00153 1 .00339344 0 .00153 1 0 0 .00163 1 .00339344 0 .00163 1 127 2 7
33 2 2 127 2 734 2 2 128 2 735 0 1 128 2 736 0 1 14 615 13 737 ?625 601 607 42 7
20 -0 0 625 601 555 124 729 37 0 625 0 720 0 +738 739 126 730 FF1 1 2 2 1 1 2 2
 TFF3 4 740 741 742 743 744 125 731 0 1 0 1 0 1 0 1 2 BBBBBBBB????0 0 0 0 45 16
 740 0 0 .00153 1 0 0 .00163 1 0 .04 .00153 1 0 .04 .00163 1 127 2 741 2 2 127 2
 742 2 2 128 2 743 0 1 128 2 744 0 1 14 625 3 745 ?0 615 619 42 729 -0 0 0 615 5
55 126 738 FF1 1 2 2 1 1 2 2 TFF3 4 746 747 748 749 750 125 739 0 1 0 1 0 1 0 1
 2 BBBBBBBB????0 0 0 0 45 16 746 0 0 .00153 1 0 .04 .00153 1 .00339344 0 .00153
 1 .00339344 .04 .00153 1 127 2 747 2 2 127 2 748 2 2 128 2 749 0 1 128 2 750 0
 1 81 1 745 88 82 625 0 0 737 554 751 81 1 737 87 82 615 0 0 728 745 752 81 1 55
4 89 82 46 0 0 745 753 754 82 1 751 0 81 1 753 90 82 546 0 0 554 0 755 82 1 754
 0 19 546 35 753 6 0 46 42 S0 82 1 755 1 81 1 728 86 82 601 0 0 707 737 756 82 1
 752 1 81 1 707 85 82 704 0 0 706 728 757 82 1 756 2 82 1 757 3 81 1 628 83 82 5
45 0 0 626 706 758 82 1 758 5 82 1 708 4 17 566 0 702 618 567 582 557 47 0 565 -
81 1 691 75 82 659 0 0 658 697 759 81 1 679 77 82 610 0 0 697 609 760 82 1 701 1
0 81 1 609 78 82 599 0 0 679 639 761 82 1 760 7 81 1 639 79 82 611 0 0 609 645 7
62 82 1 761 8 81 1 645 80 82 622 0 0 639 621 763 82 1 762 1 81 1 621 81 82 614 0
 0 645 626 764 82 1 763 2 82 1 764 3 81 1 658 74 82 605 0 0 666 691 765 82 1 759
 9 81 1 666 73 82 574 0 0 673 658 766 82 1 765 4 81 1 673 72 82 558 0 0 556 666
 767 82 1 766 5 81 1 556 71 82 47 0 0 593 673 768 82 1 767 6 82 1 768 11 82 1 62
9 0 81 1 591 69 82 589 0 0 587 593 769 82 1 595 0 81 1 587 68 82 585 0 0 584 591
 770 82 1 769 1 81 1 584 67 82 582 0 0 580 587 771 82 1 770 2 81 1 580 66 82 577
 0 0 570 584 772 82 1 771 3 81 1 570 65 82 568 0 0 561 580 773 82 1 772 4 82 1 7
73 6 82 1 571 5 82 1 562 7 136 551 1 2 4 2 1 FFT1 774 775 776 135 552 1 0 45 8 7
74 .00169672 .02 .00153 1 .00169672 .02 .00158 1 127 2 775 2 2 128 2 776 0 1 126
 548 FF1 1 2 2 1 1 2 2 TFF3 4 777 778 779 780 781 125 549 0 1 0 1 0 1 0 1 2 BBBB
BBBB????0 0 0 0 45 16 777 .00169672 .02 .00158 1 -.00169672 .02 .00158 1 .001696
72 .02 .00148 1 -.00169672 .02 .00148 1 127 2 778 2 2 127 2 779 2 2 128 2 780 0
 1 128 2 781 0 1 74 20 544 1 0 0 753 0 0 0 0 0 0 0 0 0 0 0 0 0 0 0 0 0 0 0 70 33
 0 4 T5 0 0 1 20 1 782 782 13 34 36 0 5 0 783 0 0 784 0 124 35 42 0 783 785 0 0
 +786 787 134 36 54 0 39 788 0 0 +789 790 29 37 62 0 40 791 0 .00169672 .02 .001
53 19 38 1 792 5 784 0 793 V0 16 39 32 794 ?795 0 796 36 0 0 5 18 40 28 797 795
 0 798 37 ?5 81 1 797 63 82 40 0 0 0 799 800 17 795 0 801 802 803 40 804 39 0 80
5 +18 798 23 799 802 40 806 807 ?5 81 1 799 64 82 798 0 0 797 808 809 17 802 0 8
01 810 795 798 811 812 0 813 -18 806 18 808 814 798 815 791 ?5 29 807 60 0 798 8
16 791 .00169672 0 .00153 29 816 59 0 815 817 807 0 0 .00153 29 791 61 0 806 807
 37 0 .02 .00153 18 815 16 818 819 806 820 816 ?5 29 817 58 0 820 821 816 .00169
672 .02 .00143 18 820 11 822 804 815 823 817 ?5 29 821 57 0 823 824 817 0 .02 .0
0143 18 823 9 825 826 820 827 821 ?5 29 824 56 0 827 828 821 .00169672 0 .00143
 18 827 7 829 810 823 830 824 ?5 29 828 55 0 830 0 824 0 0 .00143 18 830 6 831 8
32 827 0 828 ?5 81 1 831 70 82 830 0 0 829 794 833 17 832 0 834 835 819 830 836
 837 0 838 -15 834 21 0 835 839 0 17 835 0 834 840 832 827 841 842 0 0 +17 819 0
 834 832 840 815 813 843 0 844 -17 836 0 845 846 838 815 832 837 0 0 +16 837 15
 847 ?836 848 849 850 0 0 5 17 838 0 845 836 826 830 851 852 0 841 +15 845 14 0
 838 853 0 17 826 0 845 838 846 823 854 855 0 856 -17 851 0 857 858 841 823 838
 852 0 0 -16 852 8 859 ?838 860 842 861 0 0 5 17 841 0 857 851 862 830 835 842 0
 0 -15 857 4 0 841 863 0 17 862 0 857 841 858 827 803 849 0 835 -16 842 5 864 ?8
35 852 0 865 0 0 5 81 1 864 82 82 842 0 0 859 866 867 134 865 43 0 842 0 868 0 +
869 870 134 868 44 0 849 865 871 0 +872 873 136 869 1 2 4 2 1 FFT1 874 875 876 1
35 870 1 0 45 8 874 0 0 .00143 1 .00169672 0 .00143 1 127 2 875 2 2 128 2 876 0
 1 16 849 12 877 ?803 837 860 868 0 0 5 134 871 45 0 860 868 861 0 +878 879 136
 872 1 2 4 2 1 FFT1 880 881 882 135 873 1 0 45 8 880 .00169672 0 .00143 1 .00169
672 .02 .00143 1 127 2 881 2 2 128 2 882 0 1 16 860 10 883 ?856 849 852 871 0 0
 5 134 861 46 0 852 871 884 0 +885 886 136 878 1 2 4 2 1 FFT1 887 888 889 135 87
9 1 0 45 8 887 .00169672 .02 .00143 1 0 .02 .00143 1 127 2 888 2 2 128 2 889 0 1
 134 884 47 0 843 861 890 0 +891 892 136 885 1 2 4 2 1 FFT1 893 894 895 135 886
 1 0 45 8 893 0 .02 .00143 1 0 0 .00143 1 127 2 894 2 2 128 2 895 0 1 16 843 24
 896 ?813 812 897 884 0 0 5 134 890 48 0 812 884 898 0 +899 900 136 891 1 2 4 2
 1 FFT1 901 902 903 135 892 1 0 45 8 901 0 0 .00153 1 .00169672 0 .00153 1 127 2
 902 2 2 128 2 903 0 1 16 812 27 904 ?811 796 843 890 0 0 5 134 898 49 0 796 890
 905 0 +906 907 136 899 1 2 4 2 1 FFT1 908 909 910 135 900 1 0 45 8 908 .0016967
2 0 .00153 1 .00169672 .02 .00153 1 127 2 909 2 2 128 2 910 0 1 16 796 29 911 ?8
14 39 812 898 0 0 5 134 905 50 0 848 898 850 0 +912 913 136 906 1 2 4 2 1 FFT1 9
14 915 916 135 907 1 0 45 8 914 .00169672 .02 .00153 1 0 .02 .00153 1 127 2 915
 2 2 128 2 916 0 1 16 848 17 917 ?844 855 837 905 0 0 5 134 850 51 0 837 905 918
 0 +919 920 136 912 1 2 4 2 1 FFT1 921 922 923 135 913 1 0 45 8 921 0 .02 .00153
 1 0 0 .00153 1 127 2 922 2 2 128 2 923 0 1 134 918 52 0 897 850 788 0 +924 925
 136 919 1 2 4 2 1 FFT1 926 927 928 135 920 1 0 45 8 926 0 0 .00143 1 0 0 .00153
 1 127 2 927 2 2 128 2 928 0 1 16 897 22 929 ?840 843 855 918 0 0 5 134 788 53 0
 855 918 36 0 +930 931 136 924 1 2 4 2 1 FFT1 932 933 934 135 925 1 0 45 8 932 .
00169672 0 .00143 1 .00169672 0 .00153 1 127 2 933 2 2 128 2 934 0 1 16 855 19 9
35 ?854 897 848 788 0 0 5 136 930 1 2 4 2 1 FFT1 936 937 938 135 931 1 0 45 8 93
6 0 .02 .00143 1 0 .02 .00153 1 127 2 937 2 2 128 2 938 0 1 81 1 935 76 82 855 0
 0 929 917 939 17 854 0 940 805 856 806 826 855 0 846 +15 940 34 0 856 783 0 17
 805 0 940 804 854 40 814 796 0 811 -17 856 0 940 854 804 823 858 860 0 851 +17
 846 0 845 826 836 806 844 848 0 0 -17 844 0 941 813 814 815 846 848 0 836 +15 9
41 26 0 813 942 0 17 813 0 941 811 844 798 819 843 0 840 +17 814 0 941 844 811 8
06 805 796 0 854 +17 811 0 941 814 813 40 802 812 0 0 +17 840 0 834 819 835 798
 810 897 0 0 +17 810 0 801 803 802 827 840 897 0 862 -15 801 31 0 803 943 0 17 8
03 0 801 795 810 820 862 849 0 858 +17 858 0 857 862 851 820 856 860 0 0 -14 943
 30 944 ?942 783 801 34 785 +0 0 942 783 793 81 1 944 84 82 943 0 0 866 945 946
 14 942 25 945 ?839 943 941 34 947 +0 0 839 943 793 14 783 33 866 ?943 0 940 34
 35 +0 0 943 0 793 124 785 41 0 943 947 35 0 +948 949 13 793 2 0 0 0 0 0 0 38 78
3 124 947 40 0 942 950 785 0 +951 952 126 948 FF1 1 2 2 1 1 2 2 TFF3 4 953 954 9
55 956 957 125 949 0 1 0 1 0 1 0 1 2 BBBBBBBB????0 0 0 0 45 16 953 .00169672 .02
 .00153 1 .00169672 .02 .00133 1 .00169672 -.02 .00153 1 .00169672 -.02 .00133 1
 127 2 954 2 2 127 2 955 2 2 128 2 956 0 1 128 2 957 0 1 124 950 39 0 839 958 94
7 0 +959 960 126 951 FF1 1 2 2 1 1 2 2 TFF3 4 961 962 963 964 965 125 952 0 1 0
 1 0 1 0 1 2 BBBBBBBB????0 0 0 0 45 16 961 .00169672 .02 .00153 1 .00169672 -.02
 .00153 1 -.00169672 .02 .00153 1 -.00169672 -.02 .00153 1 127 2 962 2 2 127 2 9
63 2 2 128 2 964 0 1 128 2 965 0 1 14 839 20 966 ?853 942 834 34 950 -0 0 853 94
2 793 124 958 38 0 853 967 950 0 +968 969 126 959 FF1 1 2 2 1 1 2 2 TFF3 4 970 9
71 972 973 974 125 960 0 1 0 1 0 1 0 1 2 BBBBBBBB????0 0 0 0 45 16 970 0 0 .0014
3 1 .00339344 0 .00143 1 0 0 .00163 1 .00339344 0 .00163 1 127 2 971 2 2 127 2 9
72 2 2 128 2 973 0 1 128 2 974 0 1 14 853 13 975 ?863 839 845 34 958 -0 0 863 83
9 793 124 967 37 0 863 0 958 0 +976 977 126 968 FF1 1 2 2 1 1 2 2 TFF3 4 978 979
 980 981 982 125 969 0 1 0 1 0 1 0 1 2 BBBBBBBB????0 0 0 0 45 16 978 0 0 .00143
 1 0 0 .00163 1 0 .04 .00143 1 0 .04 .00163 1 127 2 979 2 2 127 2 980 2 2 128 2
 981 0 1 128 2 982 0 1 14 863 3 983 ?0 853 857 34 967 -0 0 0 853 793 126 976 FF1
 1 2 2 1 1 2 2 TFF3 4 984 985 986 987 988 125 977 0 1 0 1 0 1 0 1 2 BBBBBBBB????
0 0 0 0 45 16 984 0 0 .00143 1 0 .04 .00143 1 .00339344 0 .00143 1 .00339344 .04
 .00143 1 127 2 985 2 2 127 2 986 2 2 128 2 987 0 1 128 2 988 0 1 81 1 983 88 82
 863 0 0 975 792 989 81 1 975 87 82 853 0 0 966 983 990 81 1 792 89 82 38 0 0 98
3 991 992 82 1 989 0 81 1 991 90 82 784 0 0 792 0 993 82 1 992 0 19 784 35 991 5
 0 38 34 S0 82 1 993 1 81 1 966 86 82 839 0 0 945 975 994 82 1 990 1 81 1 945 85
 82 942 0 0 944 966 995 82 1 994 2 82 1 995 3 81 1 866 83 82 783 0 0 864 944 996
 82 1 996 5 82 1 946 4 17 804 0 940 856 805 820 795 39 0 803 -81 1 929 75 82 897
 0 0 896 935 997 81 1 917 77 82 848 0 0 935 847 998 82 1 939 10 81 1 847 78 82 8
37 0 0 917 877 999 82 1 998 7 81 1 877 79 82 849 0 0 847 883 1000 82 1 999 8 81
 1 883 80 82 860 0 0 877 859 1001 82 1 1000 1 81 1 859 81 82 852 0 0 883 864 100
2 82 1 1001 2 82 1 1002 3 81 1 896 74 82 843 0 0 904 929 1003 82 1 997 9 81 1 90
4 73 82 812 0 0 911 896 1004 82 1 1003 4 81 1 911 72 82 796 0 0 794 904 1005 82
 1 1004 5 81 1 794 71 82 39 0 0 831 911 1006 82 1 1005 6 82 1 1006 11 82 1 867 0
 81 1 829 69 82 827 0 0 825 831 1007 82 1 833 0 81 1 825 68 82 823 0 0 822 829 1
008 82 1 1007 1 81 1 822 67 82 820 0 0 818 825 1009 82 1 1008 2 81 1 818 66 82 8
15 0 0 808 822 1010 82 1 1009 3 81 1 808 65 82 806 0 0 799 818 1011 82 1 1010 4
 82 1 1011 6 82 1 809 5 82 1 800 7 136 789 1 2 4 2 1 FFT1 1012 1013 1014 135 790
 1 0 45 8 1012 .00169672 .02 .00143 1 .00169672 .02 .00153 1 127 2 1013 2 2 128
 2 1014 0 1 126 786 FF1 1 2 2 1 1 2 2 TFF3 4 1015 1016 1017 1018 1019 125 787 0
 1 0 1 0 1 0 1 2 BBBBBBBB????0 0 0 0 45 16 1015 .00169672 .02 .00153 1 -.0016967
2 .02 .00153 1 .00169672 .02 .00133 1 -.00169672 .02 .00133 1 127 2 1016 2 2 127
 2 1017 2 2 128 2 1018 0 1 128 2 1019 0 1 74 20 782 1 0 0 991 0 0 0 0 0 0 0 0 0
 0 0 0 0 0 0 0 0 0 0 70 25 0 4 T4 0 0 1 20 1 1020 1020 13 26 36 0 4 0 1021 0 0 1
022 0 124 27 42 0 1021 1023 0 0 +1024 1025 134 28 54 0 31 1026 0 0 +1027 1028 29
 29 62 0 32 1029 0 .00169672 .02 .00143 19 30 1 1030 4 1022 0 1031 V0 16 31 32 1
032 ?1033 0 1034 28 0 0 4 18 32 28 1035 1033 0 1036 29 ?4 81 1 1035 63 82 32 0 0
 0 1037 1038 17 1033 0 1039 1040 1041 32 1042 31 0 1043 +18 1036 23 1037 1040 32
 1044 1045 ?4 81 1 1037 64 82 1036 0 0 1035 1046 1047 17 1040 0 1039 1048 1033 1
036 1049 1050 0 1051 -18 1044 18 1046 1052 1036 1053 1029 ?4 29 1045 60 0 1036 1
054 1029 .00169672 0 .00143 29 1054 59 0 1053 1055 1045 0 0 .00143 29 1029 61 0
 1044 1045 29 0 .02 .00143 18 1053 16 1056 1057 1044 1058 1054 ?4 29 1055 58 0 1
058 1059 1054 .00169672 .02 .00138 18 1058 11 1060 1042 1053 1061 1055 ?4 29 105
9 57 0 1061 1062 1055 0 .02 .00138 18 1061 9 1063 1064 1058 1065 1059 ?4 29 1062
 56 0 1065 1066 1059 .00169672 0 .00138 18 1065 7 1067 1048 1061 1068 1062 ?4 29
 1066 55 0 1068 0 1062 0 0 .00138 18 1068 6 1069 1070 1065 0 1066 ?4 81 1 1069 7
0 82 1068 0 0 1067 1032 1071 17 1070 0 1072 1073 1057 1068 1074 1075 0 1076 -15
 1072 21 0 1073 1077 0 17 1073 0 1072 1078 1070 1065 1079 1080 0 0 +17 1057 0 10
72 1070 1078 1053 1051 1081 0 1082 -17 1074 0 1083 1084 1076 1053 1070 1075 0 0
 +16 1075 15 1085 ?1074 1086 1087 1088 0 0 4 17 1076 0 1083 1074 1064 1068 1089
 1090 0 1079 +15 1083 14 0 1076 1091 0 17 1064 0 1083 1076 1084 1061 1092 1093 0
 1094 -17 1089 0 1095 1096 1079 1061 1076 1090 0 0 -16 1090 8 1097 ?1076 1098 10
80 1099 0 0 4 17 1079 0 1095 1089 1100 1068 1073 1080 0 0 -15 1095 4 0 1079 1101
 0 17 1100 0 1095 1079 1096 1065 1041 1087 0 1073 -16 1080 5 1102 ?1073 1090 0 1
103 0 0 4 81 1 1102 82 82 1080 0 0 1097 1104 1105 134 1103 43 0 1080 0 1106 0 +1
107 1108 134 1106 44 0 1087 1103 1109 0 +1110 1111 136 1107 1 2 4 2 1 FFT1 1112
 1113 1114 135 1108 1 0 45 8 1112 0 0 .00138 1 .00169672 0 .00138 1 127 2 1113 2
 2 128 2 1114 0 1 16 1087 12 1115 ?1041 1075 1098 1106 0 0 4 134 1109 45 0 1098
 1106 1099 0 +1116 1117 136 1110 1 2 4 2 1 FFT1 1118 1119 1120 135 1111 1 0 45 8
 1118 .00169672 0 .00138 1 .00169672 .02 .00138 1 127 2 1119 2 2 128 2 1120 0 1
 16 1098 10 1121 ?1094 1087 1090 1109 0 0 4 134 1099 46 0 1090 1109 1122 0 +1123
 1124 136 1116 1 2 4 2 1 FFT1 1125 1126 1127 135 1117 1 0 45 8 1125 .00169672 .0
2 .00138 1 0 .02 .00138 1 127 2 1126 2 2 128 2 1127 0 1 134 1122 47 0 1081 1099
 1128 0 +1129 1130 136 1123 1 2 4 2 1 FFT1 1131 1132 1133 135 1124 1 0 45 8 1131
 0 .02 .00138 1 0 0 .00138 1 127 2 1132 2 2 128 2 1133 0 1 16 1081 24 1134 ?1051
 1050 1135 1122 0 0 4 134 1128 48 0 1050 1122 1136 0 +1137 1138 136 1129 1 2 4 2
 1 FFT1 1139 1140 1141 135 1130 1 0 45 8 1139 0 0 .00143 1 .00169672 0 .00143 1
 127 2 1140 2 2 128 2 1141 0 1 16 1050 27 1142 ?1049 1034 1081 1128 0 0 4 134 11
36 49 0 1034 1128 1143 0 +1144 1145 136 1137 1 2 4 2 1 FFT1 1146 1147 1148 135 1
138 1 0 45 8 1146 .00169672 0 .00143 1 .00169672 .02 .00143 1 127 2 1147 2 2 128
 2 1148 0 1 16 1034 29 1149 ?1052 31 1050 1136 0 0 4 134 1143 50 0 1086 1136 108
8 0 +1150 1151 136 1144 1 2 4 2 1 FFT1 1152 1153 1154 135 1145 1 0 45 8 1152 .00
169672 .02 .00143 1 0 .02 .00143 1 127 2 1153 2 2 128 2 1154 0 1 16 1086 17 1155
 ?1082 1093 1075 1143 0 0 4 134 1088 51 0 1075 1143 1156 0 +1157 1158 136 1150 1
 2 4 2 1 FFT1 1159 1160 1161 135 1151 1 0 45 8 1159 0 .02 .00143 1 0 0 .00143 1
 127 2 1160 2 2 128 2 1161 0 1 134 1156 52 0 1135 1088 1026 0 +1162 1163 136 115
7 1 2 4 2 1 FFT1 1164 1165 1166 135 1158 1 0 45 8 1164 0 0 .00138 1 0 0 .00143 1
 127 2 1165 2 2 128 2 1166 0 1 16 1135 22 1167 ?1078 1081 1093 1156 0 0 4 134 10
26 53 0 1093 1156 28 0 +1168 1169 136 1162 1 2 4 2 1 FFT1 1170 1171 1172 135 116
3 1 0 45 8 1170 .00169672 0 .00138 1 .00169672 0 .00143 1 127 2 1171 2 2 128 2 1
172 0 1 16 1093 19 1173 ?1092 1135 1086 1026 0 0 4 136 1168 1 2 4 2 1 FFT1 1174
 1175 1176 135 1169 1 0 45 8 1174 0 .02 .00138 1 0 .02 .00143 1 127 2 1175 2 2 1
28 2 1176 0 1 81 1 1173 76 82 1093 0 0 1167 1155 1177 17 1092 0 1178 1043 1094 1
044 1064 1093 0 1084 +15 1178 34 0 1094 1021 0 17 1043 0 1178 1042 1092 32 1052
 1034 0 1049 -17 1094 0 1178 1092 1042 1061 1096 1098 0 1089 +17 1084 0 1083 106
4 1074 1044 1082 1086 0 0 -17 1082 0 1179 1051 1052 1053 1084 1086 0 1074 +15 11
79 26 0 1051 1180 0 17 1051 0 1179 1049 1082 1036 1057 1081 0 1078 +17 1052 0 11
79 1082 1049 1044 1043 1034 0 1092 +17 1049 0 1179 1052 1051 32 1040 1050 0 0 +1
7 1078 0 1072 1057 1073 1036 1048 1135 0 0 +17 1048 0 1039 1041 1040 1065 1078 1
135 0 1100 -15 1039 31 0 1041 1181 0 17 1041 0 1039 1033 1048 1058 1100 1087 0 1
096 +17 1096 0 1095 1100 1089 1058 1094 1098 0 0 -14 1181 30 1182 ?1180 1021 103
9 26 1023 +0 0 1180 1021 1031 81 1 1182 84 82 1181 0 0 1104 1183 1184 14 1180 25
 1183 ?1077 1181 1179 26 1185 +0 0 1077 1181 1031 14 1021 33 1104 ?1181 0 1178 2
6 27 +0 0 1181 0 1031 124 1023 41 0 1181 1185 27 0 +1186 1187 13 1031 2 0 0 0 0
 0 0 30 1021 124 1185 40 0 1180 1188 1023 0 +1189 1190 126 1186 FF1 1 2 2 1 1 2
 2 TFF3 4 1191 1192 1193 1194 1195 125 1187 0 1 0 1 0 1 0 1 2 BBBBBBBB????0 0 0
 0 45 16 1191 .00169672 .02 .00143 1 .00169672 .02 .00133 1 .00169672 -.02 .0014
3 1 .00169672 -.02 .00133 1 127 2 1192 2 2 127 2 1193 2 2 128 2 1194 0 1 128 2 1
195 0 1 124 1188 39 0 1077 1196 1185 0 +1197 1198 126 1189 FF1 1 2 2 1 1 2 2 TFF
3 4 1199 1200 1201 1202 1203 125 1190 0 1 0 1 0 1 0 1 2 BBBBBBBB????0 0 0 0 45 1
6 1199 .00169672 .02 .00143 1 .00169672 -.02 .00143 1 -.00169672 .02 .00143 1 -.
00169672 -.02 .00143 1 127 2 1200 2 2 127 2 1201 2 2 128 2 1202 0 1 128 2 1203 0
 1 14 1077 20 1204 ?1091 1180 1072 26 1188 -0 0 1091 1180 1031 124 1196 38 0 109
1 1205 1188 0 +1206 1207 126 1197 FF1 1 2 2 1 1 2 2 TFF3 4 1208 1209 1210 1211 1
212 125 1198 0 1 0 1 0 1 0 1 2 BBBBBBBB????0 0 0 0 45 16 1208 0 0 .00138 1 .0033
9344 0 .00138 1 0 0 .00148 1 .00339344 0 .00148 1 127 2 1209 2 2 127 2 1210 2 2
 128 2 1211 0 1 128 2 1212 0 1 14 1091 13 1213 ?1101 1077 1083 26 1196 -0 0 1101
 1077 1031 124 1205 37 0 1101 0 1196 0 +1214 1215 126 1206 FF1 1 2 2 1 1 2 2 TFF
3 4 1216 1217 1218 1219 1220 125 1207 0 1 0 1 0 1 0 1 2 BBBBBBBB????0 0 0 0 45 1
6 1216 0 0 .00138 1 0 0 .00148 1 0 .04 .00138 1 0 .04 .00148 1 127 2 1217 2 2 12
7 2 1218 2 2 128 2 1219 0 1 128 2 1220 0 1 14 1101 3 1221 ?0 1091 1095 26 1205 -
0 0 0 1091 1031 126 1214 FF1 1 2 2 1 1 2 2 TFF3 4 1222 1223 1224 1225 1226 125 1
215 0 1 0 1 0 1 0 1 2 BBBBBBBB????0 0 0 0 45 16 1222 0 0 .00138 1 0 .04 .00138 1
 .00339344 0 .00138 1 .00339344 .04 .00138 1 127 2 1223 2 2 127 2 1224 2 2 128 2
 1225 0 1 128 2 1226 0 1 81 1 1221 88 82 1101 0 0 1213 1030 1227 81 1 1213 87 82
 1091 0 0 1204 1221 1228 81 1 1030 89 82 30 0 0 1221 1229 1230 82 1 1227 0 81 1
 1229 90 82 1022 0 0 1030 0 1231 82 1 1230 0 19 1022 35 1229 4 0 30 26 S0 82 1 1
231 1 81 1 1204 86 82 1077 0 0 1183 1213 1232 82 1 1228 1 81 1 1183 85 82 1180 0
 0 1182 1204 1233 82 1 1232 2 82 1 1233 3 81 1 1104 83 82 1021 0 0 1102 1182 123
4 82 1 1234 5 82 1 1184 4 17 1042 0 1178 1094 1043 1058 1033 31 0 1041 -81 1 116
7 75 82 1135 0 0 1134 1173 1235 81 1 1155 77 82 1086 0 0 1173 1085 1236 82 1 117
7 10 81 1 1085 78 82 1075 0 0 1155 1115 1237 82 1 1236 7 81 1 1115 79 82 1087 0
 0 1085 1121 1238 82 1 1237 8 81 1 1121 80 82 1098 0 0 1115 1097 1239 82 1 1238
 1 81 1 1097 81 82 1090 0 0 1121 1102 1240 82 1 1239 2 82 1 1240 3 81 1 1134 74
 82 1081 0 0 1142 1167 1241 82 1 1235 9 81 1 1142 73 82 1050 0 0 1149 1134 1242
 82 1 1241 4 81 1 1149 72 82 1034 0 0 1032 1142 1243 82 1 1242 5 81 1 1032 71 82
 31 0 0 1069 1149 1244 82 1 1243 6 82 1 1244 11 82 1 1105 0 81 1 1067 69 82 1065
 0 0 1063 1069 1245 82 1 1071 0 81 1 1063 68 82 1061 0 0 1060 1067 1246 82 1 124
5 1 81 1 1060 67 82 1058 0 0 1056 1063 1247 82 1 1246 2 81 1 1056 66 82 1053 0 0
 1046 1060 1248 82 1 1247 3 81 1 1046 65 82 1044 0 0 1037 1056 1249 82 1 1248 4
 82 1 1249 6 82 1 1047 5 82 1 1038 7 136 1027 1 2 4 2 1 FFT1 1250 1251 1252 135
 1028 1 0 45 8 1250 .00169672 .02 .00138 1 .00169672 .02 .00143 1 127 2 1251 2 2
 128 2 1252 0 1 126 1024 FF1 1 2 2 1 1 2 2 TFF3 4 1253 1254 1255 1256 1257 125 1
025 0 1 0 1 0 1 0 1 2 BBBBBBBB????0 0 0 0 45 16 1253 .00169672 .02 .00143 1 -.00
169672 .02 .00143 1 .00169672 .02 .00133 1 -.00169672 .02 .00133 1 127 2 1254 2
 2 127 2 1255 2 2 128 2 1256 0 1 128 2 1257 0 1 74 20 1020 1 0 0 1229 0 0 0 0 0
 0 0 0 0 0 0 0 0 0 0 0 0 0 0 70 17 0 4 T3 0 0 1 20 1 1258 1258 13 18 36 0 3 0 12
59 0 0 1260 0 124 19 42 0 1259 1261 0 0 +1262 1263 134 20 54 0 23 1264 0 0 +1265
 1266 29 21 62 0 24 1267 0 .00169672 .02 .00138 19 22 1 1268 3 1260 0 1269 V0 16
 23 32 1270 ?1271 0 1272 20 0 0 3 18 24 28 1273 1271 0 1274 21 ?3 81 1 1273 63 8
2 24 0 0 0 1275 1276 17 1271 0 1277 1278 1279 24 1280 23 0 1281 +18 1274 23 1275
 1278 24 1282 1283 ?3 81 1 1275 64 82 1274 0 0 1273 1284 1285 17 1278 0 1277 128
6 1271 1274 1287 1288 0 1289 -18 1282 18 1284 1290 1274 1291 1267 ?3 29 1283 60
 0 1274 1292 1267 .00169672 0 .00138 29 1292 59 0 1291 1293 1283 0 0 .00138 29 1
267 61 0 1282 1283 21 0 .02 .00138 18 1291 16 1294 1295 1282 1296 1292 ?3 29 129
3 58 0 1296 1297 1292 .00169672 .02 .001 18 1296 11 1298 1280 1291 1299 1293 ?3
 29 1297 57 0 1299 1300 1293 0 .02 .001 18 1299 9 1301 1302 1296 1303 1297 ?3 29
 1300 56 0 1303 1304 1297 .00169672 0 .001 18 1303 7 1305 1286 1299 1306 1300 ?3
 29 1304 55 0 1306 0 1300 0 0 .001 18 1306 6 1307 1308 1303 0 1304 ?3 81 1 1307
 70 82 1306 0 0 1305 1270 1309 17 1308 0 1310 1311 1295 1306 1312 1313 0 1314 -1
5 1310 21 0 1311 1315 0 17 1311 0 1310 1316 1308 1303 1317 1318 0 0 +17 1295 0 1
310 1308 1316 1291 1289 1319 0 1320 -17 1312 0 1321 1322 1314 1291 1308 1313 0 0
 +16 1313 15 1323 ?1312 1324 1325 1326 0 0 3 17 1314 0 1321 1312 1302 1306 1327
 1328 0 1317 +15 1321 14 0 1314 1329 0 17 1302 0 1321 1314 1322 1299 1330 1331 0
 1332 -17 1327 0 1333 1334 1317 1299 1314 1328 0 0 -16 1328 8 1335 ?1314 1336 13
18 1337 0 0 3 17 1317 0 1333 1327 1338 1306 1311 1318 0 0 -15 1333 4 0 1317 1339
 0 17 1338 0 1333 1317 1334 1303 1279 1325 0 1311 -16 1318 5 1340 ?1311 1328 0 1
341 0 0 3 81 1 1340 82 82 1318 0 0 1335 1342 1343 134 1341 43 0 1318 0 1344 0 +1
345 1346 134 1344 44 0 1325 1341 1347 0 +1348 1349 136 1345 1 2 4 2 1 FFT1 1350
 1351 1352 135 1346 1 0 45 8 1350 0 0 .001 1 .00169672 0 .001 1 127 2 1351 2 2 1
28 2 1352 0 1 16 1325 12 1353 ?1279 1313 1336 1344 0 0 3 134 1347 45 0 1336 1344
 1337 0 +1354 1355 136 1348 1 2 4 2 1 FFT1 1356 1357 1358 135 1349 1 0 45 8 1356
 .00169672 0 .001 1 .00169672 .02 .001 1 127 2 1357 2 2 128 2 1358 0 1 16 1336 1
0 1359 ?1332 1325 1328 1347 0 0 3 134 1337 46 0 1328 1347 1360 0 +1361 1362 136
 1354 1 2 4 2 1 FFT1 1363 1364 1365 135 1355 1 0 45 8 1363 .00169672 .02 .001 1
 0 .02 .001 1 127 2 1364 2 2 128 2 1365 0 1 134 1360 47 0 1319 1337 1366 0 +1367
 1368 136 1361 1 2 4 2 1 FFT1 1369 1370 1371 135 1362 1 0 45 8 1369 0 .02 .001 1
 0 0 .001 1 127 2 1370 2 2 128 2 1371 0 1 16 1319 24 1372 ?1289 1288 1373 1360 0
 0 3 134 1366 48 0 1288 1360 1374 0 +1375 1376 136 1367 1 2 4 2 1 FFT1 1377 1378
 1379 135 1368 1 0 45 8 1377 0 0 .00138 1 .00169672 0 .00138 1 127 2 1378 2 2 12
8 2 1379 0 1 16 1288 27 1380 ?1287 1272 1319 1366 0 0 3 134 1374 49 0 1272 1366
 1381 0 +1382 1383 136 1375 1 2 4 2 1 FFT1 1384 1385 1386 135 1376 1 0 45 8 1384
 .00169672 0 .00138 1 .00169672 .02 .00138 1 127 2 1385 2 2 128 2 1386 0 1 16 12
72 29 1387 ?1290 23 1288 1374 0 0 3 134 1381 50 0 1324 1374 1326 0 +1388 1389 13
6 1382 1 2 4 2 1 FFT1 1390 1391 1392 135 1383 1 0 45 8 1390 .00169672 .02 .00138
 1 0 .02 .00138 1 127 2 1391 2 2 128 2 1392 0 1 16 1324 17 1393 ?1320 1331 1313
 1381 0 0 3 134 1326 51 0 1313 1381 1394 0 +1395 1396 136 1388 1 2 4 2 1 FFT1 13
97 1398 1399 135 1389 1 0 45 8 1397 0 .02 .00138 1 0 0 .00138 1 127 2 1398 2 2 1
28 2 1399 0 1 134 1394 52 0 1373 1326 1264 0 +1400 1401 136 1395 1 2 4 2 1 FFT1
 1402 1403 1404 135 1396 1 0 45 8 1402 0 0 .001 1 0 0 .00138 1 127 2 1403 2 2 12
8 2 1404 0 1 16 1373 22 1405 ?1316 1319 1331 1394 0 0 3 134 1264 53 0 1331 1394
 20 0 +1406 1407 136 1400 1 2 4 2 1 FFT1 1408 1409 1410 135 1401 1 0 45 8 1408 .
00169672 0 .001 1 .00169672 0 .00138 1 127 2 1409 2 2 128 2 1410 0 1 16 1331 19
 1411 ?1330 1373 1324 1264 0 0 3 136 1406 1 2 4 2 1 FFT1 1412 1413 1414 135 1407
 1 0 45 8 1412 0 .02 .001 1 0 .02 .00138 1 127 2 1413 2 2 128 2 1414 0 1 81 1 14
11 76 82 1331 0 0 1405 1393 1415 17 1330 0 1416 1281 1332 1282 1302 1331 0 1322
 +15 1416 34 0 1332 1259 0 17 1281 0 1416 1280 1330 24 1290 1272 0 1287 -17 1332
 0 1416 1330 1280 1299 1334 1336 0 1327 +17 1322 0 1321 1302 1312 1282 1320 1324
 0 0 -17 1320 0 1417 1289 1290 1291 1322 1324 0 1312 +15 1417 26 0 1289 1418 0 1
7 1289 0 1417 1287 1320 1274 1295 1319 0 1316 +17 1290 0 1417 1320 1287 1282 128
1 1272 0 1330 +17 1287 0 1417 1290 1289 24 1278 1288 0 0 +17 1316 0 1310 1295 13
11 1274 1286 1373 0 0 +17 1286 0 1277 1279 1278 1303 1316 1373 0 1338 -15 1277 3
1 0 1279 1419 0 17 1279 0 1277 1271 1286 1296 1338 1325 0 1334 +17 1334 0 1333 1
338 1327 1296 1332 1336 0 0 -14 1419 30 1420 ?1418 1259 1277 18 1261 +0 0 1418 1
259 1269 81 1 1420 84 82 1419 0 0 1342 1421 1422 14 1418 25 1421 ?1315 1419 1417
 18 1423 +0 0 1315 1419 1269 14 1259 33 1342 ?1419 0 1416 18 19 +0 0 1419 0 1269
 124 1261 41 0 1419 1423 19 0 +1424 1425 13 1269 2 0 0 0 0 0 0 22 1259 124 1423
 40 0 1418 1426 1261 0 +1427 1428 126 1424 FF1 1 2 2 1 1 2 2 TFF3 4 1429 1430 14
31 1432 1433 125 1425 0 1 0 1 0 1 0 1 2 BBBBBBBB????0 0 0 0 45 16 1429 .00169672
 .02 .00138 1 .00169672 .02 62e-5 1 .00169672 -.02 .00138 1 .00169672 -.02 62e-5
 1 127 2 1430 2 2 127 2 1431 2 2 128 2 1432 0 1 128 2 1433 0 1 124 1426 39 0 131
5 1434 1423 0 +1435 1436 126 1427 FF1 1 2 2 1 1 2 2 TFF3 4 1437 1438 1439 1440 1
441 125 1428 0 1 0 1 0 1 0 1 2 BBBBBBBB????0 0 0 0 45 16 1437 .00169672 .02 .001
38 1 .00169672 -.02 .00138 1 -.00169672 .02 .00138 1 -.00169672 -.02 .00138 1 12
7 2 1438 2 2 127 2 1439 2 2 128 2 1440 0 1 128 2 1441 0 1 14 1315 20 1442 ?1329
 1418 1310 18 1426 -0 0 1329 1418 1269 124 1434 38 0 1329 1443 1426 0 +1444 1445
 126 1435 FF1 1 2 2 1 1 2 2 TFF3 4 1446 1447 1448 1449 1450 125 1436 0 1 0 1 0 1
 0 1 2 BBBBBBBB????0 0 0 0 45 16 1446 0 0 .001 1 .00339344 0 .001 1 0 0 .00176 1
 .00339344 0 .00176 1 127 2 1447 2 2 127 2 1448 2 2 128 2 1449 0 1 128 2 1450 0
 1 14 1329 13 1451 ?1339 1315 1321 18 1434 -0 0 1339 1315 1269 124 1443 37 0 133
9 0 1434 0 +1452 1453 126 1444 FF1 1 2 2 1 1 2 2 TFF3 4 1454 1455 1456 1457 1458
 125 1445 0 1 0 1 0 1 0 1 2 BBBBBBBB????0 0 0 0 45 16 1454 0 0 .001 1 0 0 .00176
 1 0 .04 .001 1 0 .04 .00176 1 127 2 1455 2 2 127 2 1456 2 2 128 2 1457 0 1 128
 2 1458 0 1 14 1339 3 1459 ?0 1329 1333 18 1443 -0 0 0 1329 1269 126 1452 FF1 1
 2 2 1 1 2 2 TFF3 4 1460 1461 1462 1463 1464 125 1453 0 1 0 1 0 1 0 1 2 BBBBBBBB
????0 0 0 0 45 16 1460 0 0 .001 1 0 .04 .001 1 .00339344 0 .001 1 .00339344 .04
 .001 1 127 2 1461 2 2 127 2 1462 2 2 128 2 1463 0 1 128 2 1464 0 1 81 1 1459 88
 82 1339 0 0 1451 1268 1465 81 1 1451 87 82 1329 0 0 1442 1459 1466 81 1 1268 89
 82 22 0 0 1459 1467 1468 82 1 1465 0 81 1 1467 90 82 1260 0 0 1268 0 1469 82 1
 1468 0 19 1260 35 1467 3 0 22 18 S0 82 1 1469 1 81 1 1442 86 82 1315 0 0 1421 1
451 1470 82 1 1466 1 81 1 1421 85 82 1418 0 0 1420 1442 1471 82 1 1470 2 82 1 14
71 3 81 1 1342 83 82 1259 0 0 1340 1420 1472 82 1 1472 5 82 1 1422 4 17 1280 0 1
416 1332 1281 1296 1271 23 0 1279 -81 1 1405 75 82 1373 0 0 1372 1411 1473 81 1
 1393 77 82 1324 0 0 1411 1323 1474 82 1 1415 10 81 1 1323 78 82 1313 0 0 1393 1
353 1475 82 1 1474 7 81 1 1353 79 82 1325 0 0 1323 1359 1476 82 1 1475 8 81 1 13
59 80 82 1336 0 0 1353 1335 1477 82 1 1476 1 81 1 1335 81 82 1328 0 0 1359 1340
 1478 82 1 1477 2 82 1 1478 3 81 1 1372 74 82 1319 0 0 1380 1405 1479 82 1 1473
 9 81 1 1380 73 82 1288 0 0 1387 1372 1480 82 1 1479 4 81 1 1387 72 82 1272 0 0
 1270 1380 1481 82 1 1480 5 81 1 1270 71 82 23 0 0 1307 1387 1482 82 1 1481 6 82
 1 1482 11 82 1 1343 0 81 1 1305 69 82 1303 0 0 1301 1307 1483 82 1 1309 0 81 1
 1301 68 82 1299 0 0 1298 1305 1484 82 1 1483 1 81 1 1298 67 82 1296 0 0 1294 13
01 1485 82 1 1484 2 81 1 1294 66 82 1291 0 0 1284 1298 1486 82 1 1485 3 81 1 128
4 65 82 1282 0 0 1275 1294 1487 82 1 1486 4 82 1 1487 6 82 1 1285 5 82 1 1276 7
 136 1265 1 2 4 2 1 FFT1 1488 1489 1490 135 1266 1 0 45 8 1488 .00169672 .02 .00
1 1 .00169672 .02 .00138 1 127 2 1489 2 2 128 2 1490 0 1 126 1262 FF1 1 2 2 1 1
 2 2 TFF3 4 1491 1492 1493 1494 1495 125 1263 0 1 0 1 0 1 0 1 2 BBBBBBBB????0 0
 0 0 45 16 1491 .00169672 .02 .00138 1 -.00169672 .02 .00138 1 .00169672 .02 62e
-5 1 -.00169672 .02 62e-5 1 127 2 1492 2 2 127 2 1493 2 2 128 2 1494 0 1 128 2 1
495 0 1 74 20 1258 1 0 0 1467 0 0 0 0 0 0 0 0 0 0 0 0 0 0 0 0 0 0 0 70 9 0 4 T2
 0 0 1 20 1 1496 1496 13 10 36 0 2 0 1497 0 0 1498 0 124 11 42 0 1497 1499 0 0 +
1500 1501 134 12 54 0 15 1502 0 0 +1503 1504 29 13 62 0 16 1505 0 .00124206 .02
 .001 19 14 1 1506 2 1498 0 1507 V0 16 15 32 1508 ?1509 0 1510 12 0 0 2 18 16 28
 1511 1509 0 1512 13 ?2 81 1 1511 63 82 16 0 0 0 1513 1514 17 1509 0 1515 1516 1
517 16 1518 15 0 1519 +18 1512 23 1513 1516 16 1520 1521 ?2 81 1 1513 64 82 1512
 0 0 1511 1522 1523 17 1516 0 1515 1524 1509 1512 1525 1526 0 1527 -18 1520 18 1
522 1528 1512 1529 1505 ?2 29 1521 60 0 1512 1530 1505 .00124206 0 .001 29 1530
 59 0 1529 1531 1521 45466e-8 0 .001 29 1505 61 0 1520 1521 13 45466e-8 .02 .001
 18 1529 16 1532 1533 1520 1534 1530 ?2 29 1531 58 0 1534 1535 1530 .00124206 .0
2 0 18 1534 11 1536 1518 1529 1537 1531 ?2 29 1535 57 0 1537 1538 1531 45466e-8
 .02 0 18 1537 9 1539 1540 1534 1541 1535 ?2 29 1538 56 0 1541 1542 1535 .001242
06 0 0 18 1541 7 1543 1524 1537 1544 1538 ?2 29 1542 55 0 1544 0 1538 45466e-8 0
 0 18 1544 6 1545 1546 1541 0 1542 ?2 81 1 1545 70 82 1544 0 0 1543 1508 1547 17
 1546 0 1548 1549 1533 1544 1550 1551 0 1552 -15 1548 21 0 1549 1553 0 17 1549 0
 1548 1554 1546 1541 1555 1556 0 0 +17 1533 0 1548 1546 1554 1529 1527 1557 0 15
58 -17 1550 0 1559 1560 1552 1529 1546 1551 0 0 +16 1551 15 1561 ?1550 1562 1563
 1564 0 0 2 17 1552 0 1559 1550 1540 1544 1565 1566 0 1555 +15 1559 14 0 1552 15
67 0 17 1540 0 1559 1552 1560 1537 1568 1569 0 1570 -17 1565 0 1571 1572 1555 15
37 1552 1566 0 0 -16 1566 8 1573 ?1552 1574 1556 1575 0 0 2 17 1555 0 1571 1565
 1576 1544 1549 1556 0 0 -15 1571 4 0 1555 1577 0 17 1576 0 1571 1555 1572 1541
 1517 1563 0 1549 -16 1556 5 1578 ?1549 1566 0 1579 0 0 2 81 1 1578 82 82 1556 0
 0 1573 1580 1581 134 1579 43 0 1556 0 1582 0 +1583 1584 134 1582 44 0 1563 1579
 1585 0 +1586 1587 136 1583 1 2 4 2 1 FFT1 1588 1589 1590 135 1584 1 0 45 8 1588
 45466e-8 0 0 1 .00124206 0 0 1 127 2 1589 2 2 128 2 1590 0 1 16 1563 12 1591 ?1
517 1551 1574 1582 0 0 2 134 1585 45 0 1574 1582 1575 0 +1592 1593 136 1586 1 2
 4 2 1 FFT1 1594 1595 1596 135 1587 1 0 45 8 1594 .00124206 0 0 1 .00124206 .02
 0 1 127 2 1595 2 2 128 2 1596 0 1 16 1574 10 1597 ?1570 1563 1566 1585 0 0 2 13
4 1575 46 0 1566 1585 1598 0 +1599 1600 136 1592 1 2 4 2 1 FFT1 1601 1602 1603 1
35 1593 1 0 45 8 1601 .00124206 .02 0 1 45466e-8 .02 0 1 127 2 1602 2 2 128 2 16
03 0 1 134 1598 47 0 1557 1575 1604 0 +1605 1606 136 1599 1 2 4 2 1 FFT1 1607 16
08 1609 135 1600 1 0 45 8 1607 45466e-8 .02 0 1 45466e-8 0 0 1 127 2 1608 2 2 12
8 2 1609 0 1 16 1557 24 1610 ?1527 1526 1611 1598 0 0 2 134 1604 48 0 1526 1598
 1612 0 +1613 1614 136 1605 1 2 4 2 1 FFT1 1615 1616 1617 135 1606 1 0 45 8 1615
 45466e-8 0 .001 1 .00124206 0 .001 1 127 2 1616 2 2 128 2 1617 0 1 16 1526 27 1
618 ?1525 1510 1557 1604 0 0 2 134 1612 49 0 1510 1604 1619 0 +1620 1621 136 161
3 1 2 4 2 1 FFT1 1622 1623 1624 135 1614 1 0 45 8 1622 .00124206 0 .001 1 .00124
206 .02 .001 1 127 2 1623 2 2 128 2 1624 0 1 16 1510 29 1625 ?1528 15 1526 1612
 0 0 2 134 1619 50 0 1562 1612 1564 0 +1626 1627 136 1620 1 2 4 2 1 FFT1 1628 16
29 1630 135 1621 1 0 45 8 1628 .00124206 .02 .001 1 45466e-8 .02 .001 1 127 2 16
29 2 2 128 2 1630 0 1 16 1562 17 1631 ?1558 1569 1551 1619 0 0 2 134 1564 51 0 1
551 1619 1632 0 +1633 1634 136 1626 1 2 4 2 1 FFT1 1635 1636 1637 135 1627 1 0 4
5 8 1635 45466e-8 .02 .001 1 45466e-8 0 .001 1 127 2 1636 2 2 128 2 1637 0 1 134
 1632 52 0 1611 1564 1502 0 +1638 1639 136 1633 1 2 4 2 1 FFT1 1640 1641 1642 13
5 1634 1 0 45 8 1640 45466e-8 0 0 1 45466e-8 0 .001 1 127 2 1641 2 2 128 2 1642
 0 1 16 1611 22 1643 ?1554 1557 1569 1632 0 0 2 134 1502 53 0 1569 1632 12 0 +16
44 1645 136 1638 1 2 4 2 1 FFT1 1646 1647 1648 135 1639 1 0 45 8 1646 .00124206
 0 0 1 .00124206 0 .001 1 127 2 1647 2 2 128 2 1648 0 1 16 1569 19 1649 ?1568 16
11 1562 1502 0 0 2 136 1644 1 2 4 2 1 FFT1 1650 1651 1652 135 1645 1 0 45 8 1650
 45466e-8 .02 0 1 45466e-8 .02 .001 1 127 2 1651 2 2 128 2 1652 0 1 81 1 1649 76
 82 1569 0 0 1643 1631 1653 17 1568 0 1654 1519 1570 1520 1540 1569 0 1560 +15 1
654 34 0 1570 1497 0 17 1519 0 1654 1518 1568 16 1528 1510 0 1525 -17 1570 0 165
4 1568 1518 1537 1572 1574 0 1565 +17 1560 0 1559 1540 1550 1520 1558 1562 0 0 -
17 1558 0 1655 1527 1528 1529 1560 1562 0 1550 +15 1655 26 0 1527 1656 0 17 1527
 0 1655 1525 1558 1512 1533 1557 0 1554 +17 1528 0 1655 1558 1525 1520 1519 1510
 0 1568 +17 1525 0 1655 1528 1527 16 1516 1526 0 0 +17 1554 0 1548 1533 1549 151
2 1524 1611 0 0 +17 1524 0 1515 1517 1516 1541 1554 1611 0 1576 -15 1515 31 0 15
17 1657 0 17 1517 0 1515 1509 1524 1534 1576 1563 0 1572 +17 1572 0 1571 1576 15
65 1534 1570 1574 0 0 -14 1657 30 1658 ?1656 1497 1515 10 1499 +0 0 1656 1497 15
07 81 1 1658 84 82 1657 0 0 1580 1659 1660 14 1656 25 1659 ?1553 1657 1655 10 16
61 +0 0 1553 1657 1507 14 1497 33 1580 ?1657 0 1654 10 11 +0 0 1657 0 1507 124 1
499 41 0 1657 1661 11 0 +1662 1663 13 1507 2 0 0 0 0 0 0 14 1497 124 1661 40 0 1
656 1664 1499 0 +1665 1666 126 1662 FF1 1 2 2 1 1 2 2 TFF3 4 1667 1668 1669 1670
 1671 125 1663 0 1 0 1 0 1 0 1 2 BBBBBBBB????0 0 0 0 45 16 1667 .00124206 .02 .0
01 1 .00124206 .02 -.001 1 .00124206 -.02 .001 1 .00124206 -.02 -.001 1 127 2 16
68 2 2 127 2 1669 2 2 128 2 1670 0 1 128 2 1671 0 1 124 1664 39 0 1553 1672 1661
 0 +1673 1674 126 1665 FF1 1 2 2 1 1 2 2 TFF3 4 1675 1676 1677 1678 1679 125 166
6 0 1 0 1 0 1 0 1 2 BBBBBBBB????0 0 0 0 45 16 1675 .00124206 .02 .001 1 .0012420
6 -.02 .001 1 -33274e-8 .02 .001 1 -33274e-8 -.02 .001 1 127 2 1676 2 2 127 2 16
77 2 2 128 2 1678 0 1 128 2 1679 0 1 14 1553 20 1680 ?1567 1656 1548 10 1664 -0
 0 1567 1656 1507 124 1672 38 0 1567 1681 1664 0 +1682 1683 126 1673 FF1 1 2 2 1
 1 2 2 TFF3 4 1684 1685 1686 1687 1688 125 1674 0 1 0 1 0 1 0 1 2 BBBBBBBB????0
 0 0 0 45 16 1684 45466e-8 0 0 1 .00202946 0 0 1 45466e-8 0 .002 1 .00202946 0 .
002 1 127 2 1685 2 2 127 2 1686 2 2 128 2 1687 0 1 128 2 1688 0 1 14 1567 13 168
9 ?1577 1553 1559 10 1672 -0 0 1577 1553 1507 124 1681 37 0 1577 0 1672 0 +1690
 1691 126 1682 FF1 1 2 2 1 1 2 2 TFF3 4 1692 1693 1694 1695 1696 125 1683 0 1 0
 1 0 1 0 1 2 BBBBBBBB????0 0 0 0 45 16 1692 45466e-8 0 0 1 45466e-8 0 .002 1 454
66e-8 .04 0 1 45466e-8 .04 .002 1 127 2 1693 2 2 127 2 1694 2 2 128 2 1695 0 1 1
28 2 1696 0 1 14 1577 3 1697 ?0 1567 1571 10 1681 -0 0 0 1567 1507 126 1690 FF1
 1 2 2 1 1 2 2 TFF3 4 1698 1699 1700 1701 1702 125 1691 0 1 0 1 0 1 0 1 2 BBBBBB
BB????0 0 0 0 45 16 1698 45466e-8 0 0 1 45466e-8 .04 0 1 .00202946 0 0 1 .002029
46 .04 0 1 127 2 1699 2 2 127 2 1700 2 2 128 2 1701 0 1 128 2 1702 0 1 81 1 1697
 88 82 1577 0 0 1689 1506 1703 81 1 1689 87 82 1567 0 0 1680 1697 1704 81 1 1506
 89 82 14 0 0 1697 1705 1706 82 1 1703 0 81 1 1705 90 82 1498 0 0 1506 0 1707 82
 1 1706 0 19 1498 35 1705 2 0 14 10 S0 82 1 1707 1 81 1 1680 86 82 1553 0 0 1659
 1689 1708 82 1 1704 1 81 1 1659 85 82 1656 0 0 1658 1680 1709 82 1 1708 2 82 1
 1709 3 81 1 1580 83 82 1497 0 0 1578 1658 1710 82 1 1710 5 82 1 1660 4 17 1518
 0 1654 1570 1519 1534 1509 15 0 1517 -81 1 1643 75 82 1611 0 0 1610 1649 1711 8
1 1 1631 77 82 1562 0 0 1649 1561 1712 82 1 1653 10 81 1 1561 78 82 1551 0 0 163
1 1591 1713 82 1 1712 7 81 1 1591 79 82 1563 0 0 1561 1597 1714 82 1 1713 8 81 1
 1597 80 82 1574 0 0 1591 1573 1715 82 1 1714 1 81 1 1573 81 82 1566 0 0 1597 15
78 1716 82 1 1715 2 82 1 1716 3 81 1 1610 74 82 1557 0 0 1618 1643 1717 82 1 171
1 9 81 1 1618 73 82 1526 0 0 1625 1610 1718 82 1 1717 4 81 1 1625 72 82 1510 0 0
 1508 1618 1719 82 1 1718 5 81 1 1508 71 82 15 0 0 1545 1625 1720 82 1 1719 6 82
 1 1720 11 82 1 1581 0 81 1 1543 69 82 1541 0 0 1539 1545 1721 82 1 1547 0 81 1
 1539 68 82 1537 0 0 1536 1543 1722 82 1 1721 1 81 1 1536 67 82 1534 0 0 1532 15
39 1723 82 1 1722 2 81 1 1532 66 82 1529 0 0 1522 1536 1724 82 1 1723 3 81 1 152
2 65 82 1520 0 0 1513 1532 1725 82 1 1724 4 82 1 1725 6 82 1 1523 5 82 1 1514 7
 136 1503 1 2 4 2 1 FFT1 1726 1727 1728 135 1504 1 0 45 8 1726 .00124206 .02 0 1
 .00124206 .02 .001 1 127 2 1727 2 2 128 2 1728 0 1 126 1500 FF1 1 2 2 1 1 2 2 T
FF3 4 1729 1730 1731 1732 1733 125 1501 0 1 0 1 0 1 0 1 2 BBBBBBBB????0 0 0 0 45
 16 1729 .00124206 .02 .001 1 -33274e-8 .02 .001 1 .00124206 .02 -.001 1 -33274e
-8 .02 -.001 1 127 2 1730 2 2 127 2 1731 2 2 128 2 1732 0 1 128 2 1733 0 1 74 20
 1496 1 0 0 1705 0 0 0 0 0 0 0 0 0 0 0 0 0 0 0 0 0 0 0 1 0 
